<svg xmlns="http://www.w3.org/2000/svg" xmlns:xlink="http://www.w3.org/1999/xlink" width="256" height="46.011" viewBox="0 0 256 46.011">
  <defs>
    <clipPath id="clip-path">
      <rect id="Rectangle_86" data-name="Rectangle 86" width="256" height="46" transform="translate(0 0)" fill="none"/>
    </clipPath>
    <clipPath id="clip-path-2">
      <rect id="Rectangle_89" data-name="Rectangle 89" width="176.867" height="27.108" fill="none"/>
    </clipPath>
    <clipPath id="clip-path-3">
      <rect id="Rectangle_90" data-name="Rectangle 90" width="176.463" height="45.743" fill="none"/>
    </clipPath>
  </defs>
  <g id="Group_229" data-name="Group 229" transform="translate(-149.904 -127.509)">
    <path id="Path_110" data-name="Path 110" d="M149.9,141.585V162.44H165.18v-2.712h-12.3v-6.416h12.007V150.6H152.881v-6.3h12.3v-2.712Z" transform="translate(0 -5.965)" fill="#030504"/>
    <g id="Group_222" data-name="Group 222" transform="translate(149.904 127.509)">
      <g id="Group_221" data-name="Group 221" transform="translate(0 0)" clip-path="url(#clip-path)">
        <path id="Path_111" data-name="Path 111" d="M210.613,141.38h-9.957v20.854h9.957c5.174,0,8.972-2.315,10.418-6.353a11.694,11.694,0,0,0,.655-4.074,12.5,12.5,0,0,0-.654-4.044c-1.443-4.056-5.24-6.384-10.419-6.384m.265,18.142h-7.245V144.094h7.245c3.495,0,6.118,1.664,7.195,4.566a9.056,9.056,0,0,1,.519,3.148,9.488,9.488,0,0,1-.489,3.088c-1.081,2.94-3.713,4.626-7.225,4.626" transform="translate(-171.995 -133.384)" fill="#030504"/>
      </g>
    </g>
    <rect id="Rectangle_87" data-name="Rectangle 87" width="2.977" height="20.855" transform="translate(210.772 135.504)" fill="#030504"/>
    <path id="Path_112" data-name="Path 112" d="M283.309,141.38v2.714h8.337v18.141h2.948V144.093h8.365V141.38Z" transform="translate(-58.067 -5.875)" fill="#030504"/>
    <rect id="Rectangle_88" data-name="Rectangle 88" width="2.977" height="20.855" transform="translate(256.174 135.504)" fill="#030504"/>
    <g id="Group_224" data-name="Group 224" transform="translate(149.904 132.011)">
      <g id="Group_223" data-name="Group 223" transform="translate(0 0)" clip-path="url(#clip-path-2)">
        <path id="Path_113" data-name="Path 113" d="M376.076,140.392c-5.951,0-10.46,2.616-12.062,7a11.96,11.96,0,0,0,0,7.975c1.611,4.382,6.131,7,12.091,7s10.45-2.616,12.032-7a11.94,11.94,0,0,0,0-7.974c-1.6-4.382-6.11-7-12.062-7m9.652,10.985a8.515,8.515,0,0,1-.518,3v0c-1.177,3.3-4.591,5.271-9.133,5.271-4.521,0-7.935-1.971-9.133-5.273a8.937,8.937,0,0,1,0-6c1.168-3.3,4.583-5.27,9.133-5.27s7.964,1.97,9.133,5.273a8.519,8.519,0,0,1,.518,3" transform="translate(-242.801 -137.456)" fill="#030504"/>
      </g>
    </g>
    <g id="Group_226" data-name="Group 226" transform="translate(229.265 127.776)">
      <g id="Group_225" data-name="Group 225" transform="translate(0 0)" clip-path="url(#clip-path-3)">
        <path id="Path_114" data-name="Path 114" d="M516.6,140.392c-5.951,0-10.46,2.616-12.062,7a11.961,11.961,0,0,0,0,7.975c1.611,4.382,6.131,7,12.091,7s10.45-2.616,12.032-7a11.941,11.941,0,0,0,0-7.974c-1.6-4.382-6.11-7-12.062-7m9.652,10.985a8.517,8.517,0,0,1-.518,3v0c-1.177,3.3-4.591,5.271-9.133,5.271-4.521,0-7.935-1.971-9.133-5.273a8.937,8.937,0,0,1,0-6c1.168-3.3,4.583-5.27,9.133-5.27s7.964,1.97,9.133,5.273a8.52,8.52,0,0,1,.518,3" transform="translate(-383.33 -133.221)" fill="#030504"/>
      </g>
    </g>
    <path id="Path_115" data-name="Path 115" d="M444.839,141.38v18.729H444.7l-.7-2.588-11.736-16.078-.047-.063H427.93v20.855h2.977V143.506h.14l.674,2.586,11.738,16.08.046.063h4.281V141.38Z" transform="translate(-121.016 -5.875)" fill="#030504"/>
    <g id="Group_228" data-name="Group 228" transform="translate(149.904 127.509)">
      <g id="Group_227" data-name="Group 227" transform="translate(0 0)" clip-path="url(#clip-path)">
        <path id="Path_116" data-name="Path 116" d="M575.968,151.009a11.029,11.029,0,0,0,2.9-2.084,3.3,3.3,0,0,0,1-2.279,2.942,2.942,0,0,0-.732-1.922A4.824,4.824,0,0,0,577,143.34a10.186,10.186,0,0,0-3.416-.5,8.282,8.282,0,0,0-4.2.961,2.86,2.86,0,0,0-1.653,2.524,2.573,2.573,0,0,0,1.165,2.133,10.208,10.208,0,0,0,3.064,1.449q1.9.586,4.012,1.107m-2.331,9.8a12.742,12.742,0,0,0,3.714-.489,6.093,6.093,0,0,0,2.494-1.351,2.636,2.636,0,0,0,.9-1.938,2.693,2.693,0,0,0-1.356-2.328,12.429,12.429,0,0,0-3.579-1.5q-2.224-.6-4.771-1.221a14.3,14.3,0,0,0-3.66,2.019,3.4,3.4,0,0,0-1.492,2.7,2.805,2.805,0,0,0,1,2.1,7.046,7.046,0,0,0,2.766,1.465,13.655,13.655,0,0,0,3.985.537m-.109,1.791a20.79,20.79,0,0,1-5.747-.733,10.2,10.2,0,0,1-4.012-2.035A3.858,3.858,0,0,1,562.3,156.9a3.594,3.594,0,0,1,.976-2.459,8.8,8.8,0,0,1,2.494-1.89,19.687,19.687,0,0,1,3.145-1.319v-.13a15.023,15.023,0,0,1-3.389-1.986,3.471,3.471,0,0,1-1.49-2.8,3.693,3.693,0,0,1,1.274-2.785,8.592,8.592,0,0,1,3.443-1.84,16.948,16.948,0,0,1,4.88-.652,13.865,13.865,0,0,1,7.13,1.547,4.55,4.55,0,0,1,2.575,3.957,3.264,3.264,0,0,1-.787,2.084,8.894,8.894,0,0,1-1.9,1.743,15.606,15.606,0,0,1-2.141,1.253v.13a26.736,26.736,0,0,1,2.9,1.254,7.366,7.366,0,0,1,2.249,1.694,3.474,3.474,0,0,1,.868,2.361,3.72,3.72,0,0,1-1.356,2.8,9.846,9.846,0,0,1-3.85,1.987,20.217,20.217,0,0,1-5.8.749" transform="translate(-329.409 -133.238)" fill="#030504"/>
      </g>
    </g>
  </g>
</svg>
